<?xml version="1.0" standalone="no"?><!DOCTYPE svg PUBLIC "-//W3C//DTD SVG 1.1//EN" "http://www.w3.org/Graphics/SVG/1.1/DTD/svg11.dtd"><svg width="500" height="500" viewBox="-250,-250,500,500" font-family="sans-serif" text-anchor="middle" font-size="0.7em" version="1.1" xmlns:xlink="http://www.w3.org/1999/xlink" xmlns="http://www.w3.org/2000/svg"><defs xmlns="http://www.w3.org/1999/xhtml"><style type="text/css"><![CDATA[]]></style></defs><defs xmlns="http://www.w3.org/1999/xhtml"><style type="text/css"></style></defs><defs xmlns="http://www.w3.org/1999/xhtml"><style type="text/css"></style></defs><path fill="#B6579F" fill-opacity="0.7" d="M1.2571815824447012e-14,-205.31333333333333A205.31333333333333,205.31333333333333,0,0,1,131.33215650904296,-157.81454150720296L49.041133871935386,-58.93000056280918A76.66666666666667,76.66666666666667,0,0,0,4.694479396731521e-15,-76.66666666666667Z"/><path fill="#F6D952" fill-opacity="0.7" d="M122.1124233411191,-146.7357014013948A190.89999999999998,190.89999999999998,0,0,1,190.8092253521088,-5.88638433405028L76.63021098478266,-2.3640097727109564A76.66666666666667,76.66666666666667,0,0,0,49.041133871935386,-58.93000056280918Z"/><path fill="#F09A52" fill-opacity="0.7" d="M171.49841218394357,-5.29065387132712A171.57999999999998,171.57999999999998,0,0,1,95.1252098558679,142.7966766065551L42.50456204462373,63.80548552571722A76.66666666666667,76.66666666666667,0,0,0,76.63021098478266,-2.3640097727109564Z"/><path fill="#ED2E6C" fill-opacity="0.7" d="M81.60875912567755,122.50653220937706A147.2,147.2,0,1,1,-2.7040201325173554e-14,-147.2L-1.4083438190194563e-14,-76.66666666666667A76.66666666666667,76.66666666666667,0,1,0,42.50456204462373,63.80548552571722Z"/></svg>