<?xml version="1.0" standalone="no"?><!DOCTYPE svg PUBLIC "-//W3C//DTD SVG 1.1//EN" "http://www.w3.org/Graphics/SVG/1.1/DTD/svg11.dtd"><svg width="500" height="500" viewBox="-250,-250,500,500" font-family="sans-serif" text-anchor="middle" font-size="0.7em" version="1.1" xmlns="http://www.w3.org/2000/svg" xmlns:xlink="http://www.w3.org/1999/xlink"><defs xmlns="http://www.w3.org/1999/xhtml"><style type="text/css"><![CDATA[]]></style></defs><path fill="#B6579F" fill-opacity="0.7" d="M1.308820855808748e-14,-213.74666666666667A213.74666666666667,213.74666666666667,0,0,1,199.92756033893775,-75.60825436439806L71.71002881597481,-27.11917301448998A76.66666666666667,76.66666666666667,0,0,0,4.694479396731521e-15,-76.66666666666667Z"/><path fill="#F6D952" fill-opacity="0.7" d="M180.27901244336067,-68.1776009584278A192.74,192.74,0,0,1,-12.866735432955965,192.31004840958863L-5.118033187333319,76.49564375878624A76.66666666666667,76.66666666666667,0,0,0,71.71002881597481,-27.11917301448998Z"/><path fill="#F09A52" fill-opacity="0.7" d="M-11.7202959989933,175.1750242076205A175.56666666666666,175.56666666666666,0,0,1,-123.24134286172273,-125.04089672616615L-53.81718028896189,-54.603011670814915A76.66666666666667,76.66666666666667,0,0,0,-5.118033187333319,76.49564375878624Z"/><path fill="#ED2E6C" fill-opacity="0.7" d="M-108.06489802023546,-109.64284743499634A153.94666666666666,153.94666666666666,0,0,1,-2.8279543885910677e-14,-153.94666666666666L-1.4083438190194563e-14,-76.66666666666667A76.66666666666667,76.66666666666667,0,0,0,-53.81718028896189,-54.603011670814915Z"/></svg>